# xmcd
#
# Track frame offsets:
#	150
#	25451
#	46966
#	65951
#	94192
#	118215
#	133775
#	166574
#	186237
#	211330
#
# Disc length: 3117 seconds
#
# Revision: 1
# Processed by: cddbd v1.5.2PL0 Copyright (c) Steve Scherf et al.
# Submitted via: audiograbber 1.83.01
#
DISCID=930c2b0a
DTITLE=Marty Willson-Piper - Nightjar
DYEAR=2009
DGENRE=Rock
TTITLE0=No One There
TTITLE1=More Is Less
TTITLE2=Lullaby for the Lonely
TTITLE3=The Sniper
TTITLE4=Feed Your Mind
TTITLE5=High Down Below
TTITLE6=I Must Have Fallen
TTITLE7=The Love You Never Had
TTITLE8=Song for Victor Jara
TTITLE9=A Game for Losers
EXTD=
EXTT0=
EXTT1=
EXTT2=
EXTT3=
EXTT4=
EXTT5=
EXTT6=
EXTT7=
EXTT8=
EXTT9=
PLAYORDER=
